<svg xmlns="http://www.w3.org/2000/svg" xmlns:xlink="http://www.w3.org/1999/xlink" class="main-svg" width="1253" height="659"><rect x="0" y="0" width="1253" height="659" style="fill: rgb(255, 255, 255); fill-opacity: 1;"/><defs id="defs-e1bec0"><g class="clips"><clipPath class="axesclip" id="clipe1bec0x"><rect x="80" y="0" width="1044" height="659"/></clipPath><clipPath class="axesclip" id="clipe1bec0y"><rect x="0" y="100" width="1253" height="479"/></clipPath><clipPath class="axesclip" id="clipe1bec0xy"><rect x="80" y="100" width="1044" height="479"/></clipPath></g></defs><g class="draglayer"><g transform="translate(80,100)"/></g><g class="subplot xy"><rect x="80" y="100" width="1044" height="479" style="stroke-width: 0px; fill: rgb(255, 255, 255); fill-opacity: 1;"/><g transform="translate(80,100)"><path class="ygrid crisp" d="M0,0h1044" transform="translate(0,394.47)" style="stroke: rgb(238, 238, 238); stroke-opacity: 1; stroke-width: 1px;"/><path class="ygrid crisp" d="M0,0h1044" transform="translate(0,309.93)" style="stroke: rgb(238, 238, 238); stroke-opacity: 1; stroke-width: 1px;"/><path class="ygrid crisp" d="M0,0h1044" transform="translate(0,225.4)" style="stroke: rgb(238, 238, 238); stroke-opacity: 1; stroke-width: 1px;"/><path class="ygrid crisp" d="M0,0h1044" transform="translate(0,140.86)" style="stroke: rgb(238, 238, 238); stroke-opacity: 1; stroke-width: 1px;"/><path class="ygrid crisp" d="M0,0h1044" transform="translate(0,56.33)" style="stroke: rgb(238, 238, 238); stroke-opacity: 1; stroke-width: 1px;"/></g><g/><g transform="translate(80,100)"><path class="yzl zl crisp" d="M0,0h1044" transform="translate(0,479)" style="stroke: rgb(68, 68, 68); stroke-opacity: 1; stroke-width: 1px;"/></g><g/><svg preserveAspectRatio="none" x="80" y="100" width="1044" height="479" viewBox="0 0 1044 479" style="fill: none;"><g class="maplayer"/><g class="barlayer"><g class="trace bars" style="opacity: 1;"><g class="points"><path d="M887.4,479V24.49H915.24V479Z" style="stroke-width: 0px; fill: rgb(31, 119, 180); fill-opacity: 1;"/><path d="M17.4,479V60.22H45.24V479Z" style="stroke-width: 0px; fill: rgb(31, 119, 180); fill-opacity: 1;"/><path d="M191.4,479V25.3H219.24V479Z" style="stroke-width: 0px; fill: rgb(31, 119, 180); fill-opacity: 1;"/><path d="M365.4,479V24.27H393.24V479Z" style="stroke-width: 0px; fill: rgb(31, 119, 180); fill-opacity: 1;"/><path d="M713.4,479V24.49H741.24V479Z" style="stroke-width: 0px; fill: rgb(31, 119, 180); fill-opacity: 1;"/><path d="M539.4,479V23.95H567.24V479Z" style="stroke-width: 0px; fill: rgb(31, 119, 180); fill-opacity: 1;"/></g></g><g class="trace bars" style="opacity: 1;"><g class="points"><path d="M219.24,479V172.9H247.08V479Z" style="stroke-width: 0px; fill: rgb(255, 127, 14); fill-opacity: 1;"/><path d="M915.24,479V172.38H943.08V479Z" style="stroke-width: 0px; fill: rgb(255, 127, 14); fill-opacity: 1;"/><path d="M45.24,479V174.08H73.08V479Z" style="stroke-width: 0px; fill: rgb(255, 127, 14); fill-opacity: 1;"/><path d="M567.24,479V172.92H595.08V479Z" style="stroke-width: 0px; fill: rgb(255, 127, 14); fill-opacity: 1;"/><path d="M741.24,479V172.51H769.08V479Z" style="stroke-width: 0px; fill: rgb(255, 127, 14); fill-opacity: 1;"/><path d="M393.24,479V172.51H421.08V479Z" style="stroke-width: 0px; fill: rgb(255, 127, 14); fill-opacity: 1;"/></g></g><g class="trace bars" style="opacity: 1;"><g class="points"><path d="M73.08,479V264.99H100.92V479Z" style="stroke-width: 0px; fill: rgb(44, 160, 44); fill-opacity: 1;"/><path d="M943.08,479V266.65H970.92V479Z" style="stroke-width: 0px; fill: rgb(44, 160, 44); fill-opacity: 1;"/><path d="M421.08,479V265.09H448.92V479Z" style="stroke-width: 0px; fill: rgb(44, 160, 44); fill-opacity: 1;"/><path d="M769.08,479V266.16H796.92V479Z" style="stroke-width: 0px; fill: rgb(44, 160, 44); fill-opacity: 1;"/><path d="M595.08,479V264.65H622.92V479Z" style="stroke-width: 0px; fill: rgb(44, 160, 44); fill-opacity: 1;"/><path d="M247.08,479V266.31H274.92V479Z" style="stroke-width: 0px; fill: rgb(44, 160, 44); fill-opacity: 1;"/></g></g><g class="trace bars" style="opacity: 1;"><g class="points"><path d="M274.92,479V170.92H302.76V479Z" style="stroke-width: 0px; fill: rgb(214, 39, 40); fill-opacity: 1;"/><path d="M448.92,479V170.58H476.76V479Z" style="stroke-width: 0px; fill: rgb(214, 39, 40); fill-opacity: 1;"/><path d="M100.92,479V172.22H128.76V479Z" style="stroke-width: 0px; fill: rgb(214, 39, 40); fill-opacity: 1;"/><path d="M970.92,479V171.41H998.76V479Z" style="stroke-width: 0px; fill: rgb(214, 39, 40); fill-opacity: 1;"/><path d="M622.92,479V171.02H650.76V479Z" style="stroke-width: 0px; fill: rgb(214, 39, 40); fill-opacity: 1;"/><path d="M796.92,479V170.97H824.76V479Z" style="stroke-width: 0px; fill: rgb(214, 39, 40); fill-opacity: 1;"/></g></g><g class="trace bars" style="opacity: 1;"><g class="points"><path d="M302.76,479V262.98H330.6V479Z" style="stroke-width: 0px; fill: rgb(148, 103, 189); fill-opacity: 1;"/><path d="M476.76,479V265.04H504.6V479Z" style="stroke-width: 0px; fill: rgb(148, 103, 189); fill-opacity: 1;"/><path d="M998.76,479V265.77H1026.6V479Z" style="stroke-width: 0px; fill: rgb(148, 103, 189); fill-opacity: 1;"/><path d="M128.76,479V265.04H156.6V479Z" style="stroke-width: 0px; fill: rgb(148, 103, 189); fill-opacity: 1;"/><path d="M824.76,479V265.52H852.6V479Z" style="stroke-width: 0px; fill: rgb(148, 103, 189); fill-opacity: 1;"/><path d="M650.76,479V264.11H678.6V479Z" style="stroke-width: 0px; fill: rgb(148, 103, 189); fill-opacity: 1;"/></g></g></g><g class="errorlayer"><g class="errorbars"/><g class="errorbars"/><g class="errorbars"/><g class="errorbars"/><g class="errorbars"/></g><g class="boxlayer"/><g class="scatterlayer"/></svg><g/><path class="crisp" transform="translate(80,100)" d="M-1,479.5h1046" style="fill: none; stroke-width: 1px; stroke: rgb(0, 0, 0); stroke-opacity: 0;"/><path class="crisp" transform="translate(80,100)" d="M-0.5,-1v480" stroke-width="1px" style="fill: none; stroke: rgb(0, 0, 0); stroke-opacity: 0;"/><g/><g transform="translate(80,100)"><g class="xtick" data-bb="1697"><text text-anchor="middle" x="0" y="493" transform="translate(87,0)" style="font-family: 'Open sans', verdana, arial, sans-serif; font-size: 12px; fill: rgb(68, 68, 68); fill-opacity: 1; visibility: visible; white-space: pre;" data-bb="1690">2^2</text></g><g class="xtick" data-bb="1698"><text text-anchor="middle" x="0" y="493" transform="translate(261,0)" style="font-family: 'Open sans', verdana, arial, sans-serif; font-size: 12px; fill: rgb(68, 68, 68); fill-opacity: 1; visibility: visible; white-space: pre;" data-bb="1691">2^3</text></g><g class="xtick" data-bb="1699"><text text-anchor="middle" x="0" y="493" transform="translate(435,0)" style="font-family: 'Open sans', verdana, arial, sans-serif; font-size: 12px; fill: rgb(68, 68, 68); fill-opacity: 1; visibility: visible; white-space: pre;" data-bb="1692">2^4</text></g><g class="xtick" data-bb="1700"><text text-anchor="middle" x="0" y="493" transform="translate(609,0)" style="font-family: 'Open sans', verdana, arial, sans-serif; font-size: 12px; fill: rgb(68, 68, 68); fill-opacity: 1; visibility: visible; white-space: pre;" data-bb="1693">2^5</text></g><g class="xtick" data-bb="1701"><text text-anchor="middle" x="0" y="493" transform="translate(783,0)" style="font-family: 'Open sans', verdana, arial, sans-serif; font-size: 12px; fill: rgb(68, 68, 68); fill-opacity: 1; visibility: visible; white-space: pre;" data-bb="1694">2^6</text></g><g class="xtick" data-bb="1702"><text text-anchor="middle" x="0" y="493" transform="translate(957,0)" style="font-family: 'Open sans', verdana, arial, sans-serif; font-size: 12px; fill: rgb(68, 68, 68); fill-opacity: 1; visibility: visible; white-space: pre;" data-bb="1695">2^7</text></g></g><g transform="translate(80,100)"><g class="ytick" data-bb="1704"><text text-anchor="end" x="-2" y="6" transform="translate(0,479)" style="font-family: 'Open sans', verdana, arial, sans-serif; font-size: 12px; fill: rgb(68, 68, 68); fill-opacity: 1; visibility: visible; white-space: pre;">0</text></g><g class="ytick" data-bb="1705"><text text-anchor="end" x="-2" y="6" transform="translate(0,394.47)" style="font-family: 'Open sans', verdana, arial, sans-serif; font-size: 12px; fill: rgb(68, 68, 68); fill-opacity: 1; visibility: visible; white-space: pre;">0.005</text></g><g class="ytick" data-bb="1706"><text text-anchor="end" x="-2" y="6" transform="translate(0,309.93)" style="font-family: 'Open sans', verdana, arial, sans-serif; font-size: 12px; fill: rgb(68, 68, 68); fill-opacity: 1; visibility: visible; white-space: pre;">0.01</text></g><g class="ytick" data-bb="1707"><text text-anchor="end" x="-2" y="6" transform="translate(0,225.4)" style="font-family: 'Open sans', verdana, arial, sans-serif; font-size: 12px; fill: rgb(68, 68, 68); fill-opacity: 1; visibility: visible; white-space: pre;">0.015</text></g><g class="ytick" data-bb="1708"><text text-anchor="end" x="-2" y="6" transform="translate(0,140.86)" style="font-family: 'Open sans', verdana, arial, sans-serif; font-size: 12px; fill: rgb(68, 68, 68); fill-opacity: 1; visibility: visible; white-space: pre;">0.02</text></g><g class="ytick" data-bb="1709"><text text-anchor="end" x="-2" y="6" transform="translate(0,56.33)" style="font-family: 'Open sans', verdana, arial, sans-serif; font-size: 12px; fill: rgb(68, 68, 68); fill-opacity: 1; visibility: visible; white-space: pre;">0.025</text></g></g><g/></g><g class="shapelayer"/><g class="pielayer"/><g class="glimages"/><g class="geoimages"/><text class="js-plot-link-container" y="650" text-anchor="end" x="1246" style="font-family: 'Open Sans', Arial, sans-serif; font-size: 12px; fill: rgb(68, 68, 68); pointer-events: all;"><tspan class="js-link-to-tool"/><tspan class="js-link-spacer"/><tspan class="js-sourcelinks"/></text><g class="infolayer"><g class="g-gtitle"/><g class="g-xtitle" data-bb="1696"><text class="xtitle" x="602" y="631" text-anchor="middle" style="font-family: 'Open sans', verdana, arial, sans-serif; font-size: 14px; fill: rgb(68, 68, 68); opacity: 1; white-space: pre; visibility: visible;">Tamaño del Patrón [Caracteres]</text></g><g class="g-ytitle" data-bb="1703" transform="translate(-0.640625,0)"><text class="ytitle" transform="rotate(-90,42,339.5) translate(0, 0)" x="42" y="339.5" text-anchor="middle" style="font-family: 'Open sans', verdana, arial, sans-serif; font-size: 14px; fill: rgb(68, 68, 68); opacity: 1; white-space: pre; visibility: visible;">Tiempo Promedio [s]</text></g><svg class="legend" x="1145" y="100" width="96" height="105"><rect class="bg" x="0" y="0" width="96" height="105" style="stroke: rgb(68, 68, 68); stroke-opacity: 1; fill: rgb(255, 255, 255); fill-opacity: 1; stroke-width: 0px;"/><g class="groups"><g class="traces" transform="translate(0,14.5)" style="opacity: 1;"><g class="legendfill"/><g class="legendlines"/><g class="legendsymbols" style="opacity: 1;"><g class="legendpoints"><path class="legendbar" d="M6,6H-6V-6H6Z" transform="translate(20,0)" style="stroke-width: 0px; fill: rgb(31, 119, 180); fill-opacity: 1;"/></g></g><text class="legendtext" x="40" y="4.680000000000001" style="text-anchor: start; font-family: 'Open sans', verdana, arial, sans-serif; font-size: 12px; fill: rgb(68, 68, 68); fill-opacity: 1; white-space: pre; visibility: visible;" data-bb="1710">BINA.txt</text><rect class="legendtoggle" pointer-events="all" x="0" y="-9.5" height="19" style="cursor: pointer; fill: rgb(0, 0, 0); fill-opacity: 0;" width="90.765625"/></g><g class="traces" transform="translate(0,33.5)" style="opacity: 1;"><g class="legendfill"/><g class="legendlines"/><g class="legendsymbols" style="opacity: 1;"><g class="legendpoints"><path class="legendbar" d="M6,6H-6V-6H6Z" transform="translate(20,0)" style="stroke-width: 0px; fill: rgb(255, 127, 14); fill-opacity: 1;"/></g></g><text class="legendtext" x="40" y="4.680000000000001" style="text-anchor: start; font-family: 'Open sans', verdana, arial, sans-serif; font-size: 12px; fill: rgb(68, 68, 68); fill-opacity: 1; white-space: pre; visibility: visible;" data-bb="1711">RDNA.txt</text><rect class="legendtoggle" pointer-events="all" x="0" y="-9.5" height="19" style="cursor: pointer; fill: rgb(0, 0, 0); fill-opacity: 0;" width="90.765625"/></g><g class="traces" transform="translate(0,52.5)" style="opacity: 1;"><g class="legendfill"/><g class="legendlines"/><g class="legendsymbols" style="opacity: 1;"><g class="legendpoints"><path class="legendbar" d="M6,6H-6V-6H6Z" transform="translate(20,0)" style="stroke-width: 0px; fill: rgb(44, 160, 44); fill-opacity: 1;"/></g></g><text class="legendtext" x="40" y="4.680000000000001" style="text-anchor: start; font-family: 'Open sans', verdana, arial, sans-serif; font-size: 12px; fill: rgb(68, 68, 68); fill-opacity: 1; white-space: pre; visibility: visible;" data-bb="1712">RLNG.txt</text><rect class="legendtoggle" pointer-events="all" x="0" y="-9.5" height="19" style="cursor: pointer; fill: rgb(0, 0, 0); fill-opacity: 0;" width="90.765625"/></g><g class="traces" transform="translate(0,71.5)" style="opacity: 1;"><g class="legendfill"/><g class="legendlines"/><g class="legendsymbols" style="opacity: 1;"><g class="legendpoints"><path class="legendbar" d="M6,6H-6V-6H6Z" transform="translate(20,0)" style="stroke-width: 0px; fill: rgb(214, 39, 40); fill-opacity: 1;"/></g></g><text class="legendtext" x="40" y="4.680000000000001" style="text-anchor: start; font-family: 'Open sans', verdana, arial, sans-serif; font-size: 12px; fill: rgb(68, 68, 68); fill-opacity: 1; white-space: pre; visibility: visible;" data-bb="1713">SDNA.txt</text><rect class="legendtoggle" pointer-events="all" x="0" y="-9.5" height="19" style="cursor: pointer; fill: rgb(0, 0, 0); fill-opacity: 0;" width="90.765625"/></g><g class="traces" transform="translate(0,90.5)" style="opacity: 1;"><g class="legendfill"/><g class="legendlines"/><g class="legendsymbols" style="opacity: 1;"><g class="legendpoints"><path class="legendbar" d="M6,6H-6V-6H6Z" transform="translate(20,0)" style="stroke-width: 0px; fill: rgb(148, 103, 189); fill-opacity: 1;"/></g></g><text class="legendtext" x="40" y="4.680000000000001" style="text-anchor: start; font-family: 'Open sans', verdana, arial, sans-serif; font-size: 12px; fill: rgb(68, 68, 68); fill-opacity: 1; white-space: pre; visibility: visible;" data-bb="1714">SLNG.txt</text><rect class="legendtoggle" pointer-events="all" x="0" y="-9.5" height="19" width="90.765625" style="cursor: pointer; fill: rgb(0, 0, 0); fill-opacity: 0;"/></g></g></svg></g></svg>